<?xml version="1.0" standalone="no"?><!DOCTYPE svg PUBLIC "-//W3C//DTD SVG 1.1//EN" "http://www.w3.org/Graphics/SVG/1.1/DTD/svg11.dtd"><svg t="1562227985646" class="icon" viewBox="0 0 1024 1024" version="1.1" xmlns="http://www.w3.org/2000/svg" p-id="1266" width="64" height="64" xmlns:xlink="http://www.w3.org/1999/xlink"><defs><style type="text/css"></style></defs><path d="M796.8 228.8c-141.6 0-233.6-57.6-268.8-84-9.6-7.2-22.4-7.2-31.2 0-34.4 27.2-126.4 84-268.8 84-3.2 0-12 0-20.8-0.8-14.4-0.8-27.2 11.2-27.2 25.6v328c0 92.8 33.6 228.8 323.2 332.8 0 0 7.2 2.4 8.8 2.4 2.4 0 8.8-2.4 8.8-2.4 289.6-104 323.2-239.2 323.2-332.8v-328c0-14.4-12-26.4-27.2-25.6-8.8 0.8-17.6 0.8-20 0.8zM483.2 674.4L342.4 552c-13.6-12-12.8-33.6 0.8-44.8 10.4-8 24.8-8.8 35.2-0.8l51.2 36.8c11.2 8 27.2 7.2 36.8-2.4 37.6-36 132-121.6 223.2-166.4l16.8 18.4c0.8 0.8-147.2 121.6-223.2 281.6z" fill="#409EFF" p-id="1267"></path></svg>